<?xml version="1.0" standalone="no"?>
<!DOCTYPE svg PUBLIC "-//W3C//DTD SVG 20010904//EN"
 "http://www.w3.org/TR/2001/REC-SVG-20010904/DTD/svg10.dtd">
<svg version="1.0" xmlns="http://www.w3.org/2000/svg"
 width="512.000000pt" height="512.000000pt" viewBox="0 0 512.000000 512.000000"
 preserveAspectRatio="xMidYMid meet">
<metadata>
Created by potrace 1.11, written by Peter Selinger 2001-2013
</metadata>
<g transform="translate(0.000000,512.000000) scale(0.100000,-0.100000)"
fill="#000000" stroke="none">
<path d="M2442 4675 c-76 -72 -103 -87 -117 -64 -4 5 -17 15 -28 20 -12 5 -35
18 -52 29 -16 11 -37 23 -45 26 -8 4 -22 13 -31 21 -14 11 -21 7 -57 -33 -23
-25 -42 -52 -42 -60 0 -8 -3 -14 -7 -14 -5 0 -21 -18 -37 -40 -23 -30 -33 -37
-46 -30 -29 15 -211 82 -215 78 -1 -1 -28 -52 -58 -113 -31 -60 -60 -116 -65
-122 -6 -10 -38 -8 -147 12 -76 13 -140 24 -141 22 -8 -8 -42 -106 -38 -110 2
-2 -1 -17 -7 -33 -7 -16 -15 -45 -18 -64 l-6 -35 -137 -3 -136 -3 -6 -77 c-4
-42 -9 -100 -12 -129 l-6 -51 -107 -21 c-58 -12 -115 -23 -126 -24 -18 -2 -20
-9 -18 -67 1 -36 5 -85 7 -110 18 -159 55 -529 56 -551 0 -22 -60 -85 -348
-360 -191 -184 -366 -350 -388 -370 l-42 -37 109 -88 c121 -99 126 -110 68
-169 -16 -17 -29 -36 -29 -41 0 -6 -10 -19 -21 -30 -12 -10 -33 -36 -46 -57
-26 -42 -22 -59 22 -78 29 -14 61 -33 77 -47 8 -6 17 -10 20 -7 3 3 11 -1 18
-10 7 -8 18 -15 24 -15 6 -1 22 -10 35 -21 l25 -20 -62 -125 c-43 -86 -58
-126 -50 -129 192 -72 300 -113 304 -117 3 -3 -5 -39 -16 -79 -12 -41 -25 -93
-30 -117 -5 -24 -13 -48 -16 -54 -4 -6 -11 -29 -14 -50 -8 -44 1 -52 77 -62
21 -3 67 -10 103 -16 36 -6 75 -10 88 -10 12 0 25 -6 28 -13 2 -7 -1 -74 -9
-150 l-13 -137 157 0 156 0 6 -37 c3 -21 9 -78 12 -128 8 -110 21 -155 43
-155 9 0 60 10 112 21 52 11 104 21 115 23 11 2 38 9 60 15 31 8 396 83 465
95 8 1 22 5 30 8 8 3 66 16 128 28 96 19 115 20 129 9 10 -8 127 -106 262
-218 l243 -203 79 78 c88 87 76 86 174 25 22 -14 42 -25 45 -26 3 0 20 -11 38
-24 l33 -23 26 23 c14 13 40 47 59 74 19 28 44 62 57 77 l22 27 85 -33 c142
-56 121 -64 189 73 l61 120 32 -5 c18 -3 48 -7 66 -9 19 -2 64 -9 102 -16 37
-6 74 -9 82 -6 8 2 20 24 27 48 8 24 21 67 30 94 9 28 15 57 14 65 -1 8 3 22
8 32 8 16 24 18 124 18 62 0 116 4 119 8 3 5 8 57 12 116 4 59 12 110 18 114
6 4 36 13 66 20 53 12 75 16 131 26 15 2 37 9 49 16 20 11 22 17 16 68 -3 32
-6 77 -7 102 -1 25 -6 50 -10 56 -5 6 -7 28 -5 50 1 21 -1 46 -5 54 -4 8 -15
98 -24 198 -13 151 -13 187 -3 200 7 8 180 176 385 374 205 197 369 358 365
358 -8 0 -102 79 -170 142 l-43 40 33 38 c18 21 49 61 68 90 19 29 43 61 53
71 10 11 15 24 12 30 -8 12 -77 57 -86 55 -4 -1 -16 8 -28 18 -21 19 -40 31
-98 61 -18 10 -33 21 -33 26 0 5 27 63 60 129 33 66 60 121 60 123 0 2 -70 30
-155 63 -139 53 -155 61 -150 79 4 11 7 29 8 40 3 20 17 74 42 155 7 25 17 61
20 81 8 41 1 46 -74 55 -26 3 -66 10 -91 15 -66 14 -103 20 -125 22 -23 2 -25
25 -11 200 l8 107 -146 0 c-80 0 -146 1 -147 3 0 2 -27 236 -31 277 -4 31 -23
31 -153 4 -53 -11 -366 -72 -410 -80 -32 -5 -61 -11 -97 -19 -104 -22 -337
-65 -351 -65 -11 0 -127 93 -260 208 -133 114 -249 213 -259 220 -15 11 -27 4
-96 -63z m202 -953 c45 -42 266 -255 491 -472 226 -217 482 -463 568 -545 86
-83 157 -158 157 -167 0 -23 -39 -68 -60 -68 -10 0 -89 68 -177 152 -87 83
-270 260 -408 392 -137 132 -302 289 -365 350 -63 60 -155 149 -205 197 l-90
87 -92 -86 c-50 -48 -192 -184 -315 -303 -590 -570 -822 -789 -837 -789 -29 0
-64 45 -57 73 3 13 92 107 203 213 109 104 243 232 298 284 55 53 159 152 230
221 391 378 561 539 569 539 5 0 46 -35 90 -78z m786 -321 l0 -228 -25 -27
c-27 -30 -42 -32 -70 -10 -18 14 -20 30 -25 192 l-5 177 -169 3 c-140 2 -173
5 -188 19 -24 22 -23 52 4 80 21 23 24 23 250 23 l228 0 0 -229z m-1754 -882
c18 -20 19 -46 21 -543 l3 -521 262 0 263 0 3 353 2 352 325 0 325 0 2 -352 3
-353 262 -3 262 -2 3 501 c3 482 4 501 22 515 31 22 71 18 90 -11 14 -22 16
-81 14 -572 l-3 -548 -382 -3 -383 -2 0 355 0 355 -215 0 -215 0 0 -355 0
-355 -382 2 -383 3 -3 579 -2 580 22 23 c27 29 59 29 84 2z"/>
</g>
</svg>
